<svg xmlns="http://www.w3.org/2000/svg" version="1.0" width="82.000000pt" height="69.000000pt" viewBox="0 0 82.000000 69.000000" preserveAspectRatio="xMidYMid meet">

<g transform="translate(0.000000,69.000000) scale(0.100000,-0.100000)" fill="#2563eb" stroke="none">
<path d="M60 570 l0 -60 50 0 50 0 0 60 0 60 -50 0 -50 0 0 -60z" fill="#2563eb"/>
<path d="M230 608 c-13 -14 -20 -35 -20 -60 l0 -38 45 0 c33 0 45 4 45 15 0 12 17 15 95 15 l95 0 0 45 0 45 -120 0 c-110 0 -121 -2 -140 -22z" fill="#2563eb"/>
<path d="M60 460 l0 -40 108 0 c120 0 157 -13 136 -47 -8 -13 -26 -19 -63 -21 l-51 -3 0 -40 0 -39 75 0 c70 0 77 2 106 29 41 40 50 97 20 144 -31 50 -56 57 -201 57 l-130 0 0 -40z" fill="#2563eb"/>
<path d="M440 385 l0 -45 38 0 c55 0 82 -23 82 -68 0 -63 -28 -72 -214 -72 l-156 0 0 -45 0 -45 174 0 c199 0 227 7 269 67 21 31 27 51 27 95 0 47 -5 61 -31 94 -37 46 -75 64 -140 64 l-49 0 0 -45z" fill="#2563eb"/>
<path d="M60 250 l0 -140 50 0 50 0 0 140 0 140 -50 0 -50 0 0 -140z" fill="#2563eb"/>
</g>
</svg>